<svg xmlns="http://www.w3.org/2000/svg" version="1.1" xmlns:xlink="http://www.w3.org/1999/xlink" width="512" height="512" x="0" y="0" viewBox="0 0 512 512" style="enable-background:new 0 0 512 512" xml:space="preserve" className=""><g><path d="M492.523 271.638c29.162 167.736-10.797 233.405-236.522 234.797C30.276 505.043-9.682 439.318 19.479 271.638 48.307 109.523 74.464 5.565 256.001 5.565s207.694 103.958 236.522 266.073z" style="" fill="#75ddef" data-original="#ff88b6" className="" opacity="1"></path><path d="m308.092 8.96-.779.501a62.194 62.194 0 0 1-30.553 4.897 237.476 237.476 0 0 0-66.783 6.567 94.617 94.617 0 0 0-54.15 37.009c-7.958 12.188-12.41 26.936-23.263 36.563-12.132 10.685-29.551 12.633-43.52 20.647a56.81 56.81 0 0 0-27.826 46.303c-1.057 28.55 19.645 56.153 12.577 83.812C70.68 257.391 62.666 267.52 57.1 278.65c-5.009 10.407-8.014 22.261-15.527 30.776a74.056 74.056 0 0 1-16.696 13.19c-4.063 2.56-8.237 4.842-12.188 7.235a570.152 570.152 0 0 1 7.457-58.435C48.307 109.523 74.464 5.565 256.001 5.565c7.513 0 14.803 0 21.816.557 10.685.556 20.758 1.502 30.275 2.838z" style="" fill="#75bbda" data-original="#ffaedc" className="" opacity="1"></path><path d="M256.001 506.435a730.102 730.102 0 0 1-98.226-6.289 55.302 55.302 0 0 1 21.259-15.416c17.085-6.678 36.118-5.565 54.317-3.506s36.508 5.565 54.762 4.007c36.619-3.617 68.508-27.826 104.96-32.89a185.258 185.258 0 0 0 27.214-3.784 49.145 49.145 0 0 0 32.779-32.946c2.504-8.849 2.727-18.922 8.793-25.823 3.951-4.452 9.85-6.901 13.802-11.13 7.791-8.793 5.899-22.261 3.896-33.837a627.54 627.54 0 0 1-9.127-105.739c0-13.523.946-28.271 8.125-38.957 4.953 22.261 9.461 46.47 13.969 71.903 29.161 167.29-10.798 233.015-236.523 234.407z" style="" fill="#0b5587" data-original="#db71b0" className="" opacity="1"></path><path d="M256.035 512c-118.634-.729-186.897-19.462-221.39-60.728-30.202-36.135-36.38-90.14-20.653-180.586C43.844 102.851 71.498 0 256.001 0s212.163 102.851 242.004 270.664c0 .006.006.011.006.022 15.722 90.463 9.55 144.473-20.653 180.602C442.87 492.544 374.613 511.271 256.035 512zm-.034-500.87c-175.627 0-202.212 99.361-231.046 261.476-15.098 86.867-9.65 138.168 18.232 171.526 32.206 38.534 97.853 56.031 212.847 56.737 114.938-.707 180.58-18.204 212.781-56.721 27.876-33.347 33.33-84.647 18.226-171.537C458.213 110.492 431.628 11.13 256.001 11.13z" style="" fill="#302a27" data-original="#302a27" className=""></path><path d="M337.699 398.692a162.414 162.414 0 0 1-25.043-7.179c-4.73-1.725-9.294-3.283-13.746-4.619-40.014-12.522-68.675-12.41-90.88-7.402a151.955 151.955 0 0 0-35.506 13.19l-7.29 3.673c-28.494 14.637-24.654-10.518-4.73-34.115 1.781-2.115 3.617-4.174 5.565-6.122a157.213 157.213 0 0 1 19.534-17.976c41.433-32.957 99.4-35.406 143.471-6.066a79.744 79.744 0 0 1 7.457 5.565 115.81 115.81 0 0 1 10.184 10.073c23.206 25.879 34.782 59.159-9.016 50.978z" style="" fill="#302a27" data-original="#302a27" className=""></path><path d="M151.442 406.283c-4.118 0-7.335-1.441-9.622-4.319-7.418-9.327 1.903-28.472 14.431-43.314l.006-.006c33.809-39.869 71.051-50.404 96.339-52.213 38.701-2.816 70.556 12.266 87.513 27.264 21.415 18.944 39.279 47.332 30.191 62.625-7.229 12.171-26.707 12.288-59.592.367-78.52-28.472-115.745-9.35-142.931 4.614-6.462 3.318-11.916 4.982-16.335 4.982zm-.913-11.253c.089 0 3.033 1.057 12.16-3.629 29.006-14.898 68.719-35.295 151.808-5.181 29.624 10.746 43.314 9.333 46.23 4.413 4.38-7.374-6.656-29.729-27.993-48.601-14.564-12.878-44.071-27.03-79.338-24.504-33.213 2.382-63.861 19.089-88.643 48.306-13.083 15.5-15.509 27.321-14.224 29.196z" style="" fill="#302a27" data-original="#302a27" className=""></path><path d="M166.012 395.13a163.227 163.227 0 0 1 44.522-16.696 242.812 242.812 0 0 1-20.035-37.287 158.403 158.403 0 0 1-12.41-46.692 5.566 5.566 0 0 0-10.796-1.391 174.707 174.707 0 0 0-6.901 69.064 194.28 194.28 0 0 0 5.62 33.002z" style="" fill="#ffffff" data-original="#ffffff" className=""></path><path d="M166.012 400.696a5.564 5.564 0 0 1-5.387-4.163 200.378 200.378 0 0 1-5.782-33.948c-2.421-24.025-.022-48.006 7.129-71.162 1.525-4.341 5.287-7.251 9.656-7.608 6.144-.451 11.503 4.074 12.004 10.19a152.449 152.449 0 0 0 11.96 44.906 238.175 238.175 0 0 0 19.595 36.474 5.553 5.553 0 0 1 .495 5.159 5.565 5.565 0 0 1-3.974 3.334A157.898 157.898 0 0 0 168.706 400a5.572 5.572 0 0 1-2.694.696zm6.544-105.645c-6.662 21.387-8.91 43.882-6.628 66.521a190.156 190.156 0 0 0 3.823 25.316 168.427 168.427 0 0 1 31.922-12.043 250.138 250.138 0 0 1-16.289-31.499 163.772 163.772 0 0 1-12.828-48.295z" style="" fill="#302a27" data-original="#302a27" className=""></path><path d="M314.547 391.791a132.808 132.808 0 0 0 30.219 7.847 201.159 201.159 0 0 0 7.402-45.913 172.47 172.47 0 0 0-7.457-60.661 5.567 5.567 0 0 0-7.096-3.406 5.563 5.563 0 0 0-3.701 4.797 151.57 151.57 0 0 1-10.184 41.183 248.316 248.316 0 0 1-27.103 50.087c5.788 1.948 11.687 3.84 17.92 6.066z" style="" fill="#ffffff" data-original="#ffffff" className=""></path><path d="M344.772 405.203a5.98 5.98 0 0 1-.762-.05 138.43 138.43 0 0 1-31.41-8.147c-4.302-1.53-8.448-2.905-12.505-4.257l-5.242-1.753a5.577 5.577 0 0 1-3.512-3.534 5.552 5.552 0 0 1 .729-4.931 243.459 243.459 0 0 0 26.502-48.968 146.132 146.132 0 0 0 9.811-39.68c.351-4.257 3.25-8.014 7.385-9.472 5.788-2.042 12.16 1.018 14.197 6.806 6.361 20.525 8.949 41.589 7.763 62.815a205.97 205.97 0 0 1-7.602 47.121 5.573 5.573 0 0 1-5.354 4.05zm-39.413-22.438c3.595 1.197 7.274 2.432 11.064 3.79.05.017.1.033.145.056a127.299 127.299 0 0 0 24.125 6.762 195.551 195.551 0 0 0 5.916-39.891c1.113-19.968-1.308-39.719-7.213-58.769a154.474 154.474 0 0 1-10.502 43.002 254.266 254.266 0 0 1-23.535 45.05z" style="" fill="#302a27" data-original="#302a27" className=""></path><circle cx="256.001" cy="211.478" r="66.783" style="" fill="#0b5587" data-original="#db71b0" className="" opacity="1"></circle><path d="M256.001 283.826c-39.891 0-72.348-32.456-72.348-72.348s32.456-72.348 72.348-72.348 72.348 32.456 72.348 72.348-32.456 72.348-72.348 72.348zm0-133.565c-33.753 0-61.217 27.464-61.217 61.217s27.464 61.217 61.217 61.217c33.759 0 61.217-27.464 61.217-61.217s-27.458-61.217-61.217-61.217z" style="" fill="#0b5587" data-original="#db71b0" className="" opacity="1"></path><circle cx="133.566" cy="189.217" r="55.652" style="" fill="#0b5587" data-original="#db71b0" className="" opacity="1"></circle><path d="M133.566 250.435c-33.753 0-61.217-27.464-61.217-61.217S99.813 128 133.566 128s61.217 27.464 61.217 61.217-27.464 61.218-61.217 61.218zm0-111.305c-27.615 0-50.087 22.472-50.087 50.087s22.472 50.087 50.087 50.087 50.087-22.472 50.087-50.087-22.472-50.087-50.087-50.087z" style="" fill="#0b5587" data-original="#db71b0" className="" opacity="1"></path><circle cx="378.436" cy="189.217" r="55.652" style="" fill="#0b5587" data-original="#db71b0" className="" opacity="1"></circle><path d="M378.442 250.435c-33.753 0-61.217-27.464-61.217-61.217S344.689 128 378.442 128s61.217 27.464 61.217 61.217-27.464 61.218-61.217 61.218zm0-111.305c-27.62 0-50.087 22.472-50.087 50.087s22.467 50.087 50.087 50.087c27.62 0 50.087-22.472 50.087-50.087s-22.473-50.087-50.087-50.087zM178.979 422.957a65.842 65.842 0 0 1 17.53-12.633 80.353 80.353 0 0 1 20.536-7.123 95.484 95.484 0 0 1 10.797-1.558 77.427 77.427 0 0 1 11.13 0 65.343 65.343 0 0 1 20.925 5.12 2.85 2.85 0 1 1-1.225 5.565 173.45 173.45 0 0 0-19.757-.557c-6.456.189-12.883.968-19.2 2.337a123.584 123.584 0 0 0-18.699 5.565 174.649 174.649 0 0 0-18.031 7.903 2.775 2.775 0 0 1-3.801-1.007 2.783 2.783 0 0 1 .518-3.445l-.723-.167z" style="" fill="#0b5587" data-original="#db71b0" className="" opacity="1"></path><circle cx="256.001" cy="189.217" r="66.783" style="" fill="#ffffff" data-original="#ffffff" className=""></circle><path d="M256.001 261.565c-39.891 0-72.348-32.456-72.348-72.348s32.456-72.348 72.348-72.348 72.348 32.456 72.348 72.348-32.456 72.348-72.348 72.348zm0-133.565c-33.753 0-61.217 27.464-61.217 61.217s27.464 61.217 61.217 61.217c33.759 0 61.217-27.464 61.217-61.217S289.76 128 256.001 128z" style="" fill="#302a27" data-original="#302a27" className=""></path><circle cx="256.001" cy="189.217" r="38.957" style="" fill="#076352" data-original="#9adb61" className="" opacity="1"></circle><circle cx="256.001" cy="189.217" r="16.696" style="" fill="#302a27" data-original="#302a27" className=""></circle><circle cx="244.871" cy="178.087" r="11.13" style="" fill="#ffffff" data-original="#ffffff" className=""></circle><circle cx="133.566" cy="166.957" r="55.652" style="" fill="#ffffff" data-original="#ffffff" className=""></circle><path d="M133.566 228.174c-33.753 0-61.217-27.464-61.217-61.217s27.464-61.217 61.217-61.217 61.217 27.464 61.217 61.217-27.464 61.217-61.217 61.217zm0-111.304c-27.615 0-50.087 22.472-50.087 50.087s22.472 50.087 50.087 50.087 50.087-22.472 50.087-50.087-22.472-50.087-50.087-50.087z" style="" fill="#302a27" data-original="#302a27" className=""></path><circle cx="133.566" cy="166.957" r="33.391" style="" fill="#076352" data-original="#9adb61" className="" opacity="1"></circle><circle cx="133.566" cy="166.957" r="11.13" style="" fill="#302a27" data-original="#302a27" className=""></circle><circle cx="122.436" cy="155.826" r="8.348" style="" fill="#ffffff" data-original="#ffffff" className=""></circle><circle cx="378.436" cy="166.957" r="55.652" style="" fill="#ffffff" data-original="#ffffff" className=""></circle><path d="M378.442 228.174c-33.753 0-61.217-27.464-61.217-61.217s27.464-61.217 61.217-61.217 61.217 27.464 61.217 61.217-27.464 61.217-61.217 61.217zm0-111.304c-27.62 0-50.087 22.472-50.087 50.087s22.467 50.087 50.087 50.087c27.62 0 50.087-22.472 50.087-50.087s-22.473-50.087-50.087-50.087z" style="" fill="#302a27" data-original="#302a27" className=""></path><circle cx="378.436" cy="166.957" r="33.391" style="" fill="#076352" data-original="#9adb61" className="" opacity="1"></circle><circle cx="378.436" cy="166.957" r="11.13" style="" fill="#302a27" data-original="#302a27" className=""></circle><circle cx="367.306" cy="155.826" r="8.348" style="" fill="#ffffff" data-original="#ffffff" className=""></circle><path d="M171.076 75.297a46.239 46.239 0 0 1 10.518 5.287 46.966 46.966 0 0 1 8.682 7.402 38.33 38.33 0 0 1 6.456 9.35 41.573 41.573 0 0 1 3.562 10.574 2.9 2.9 0 0 1-1.976 3.59 2.9 2.9 0 0 1-3.59-1.976 34.821 34.821 0 0 0-4.174-8.403 30.77 30.77 0 0 0-6.233-6.79 37.91 37.91 0 0 0-7.569-5.287 36.606 36.606 0 0 0-8.348-2.894 5.663 5.663 0 0 1-4.536-6.595 5.663 5.663 0 0 1 6.595-4.536l.613.278zM343.598 86.094a36.622 36.622 0 0 0-8.348 2.894 37.737 37.737 0 0 0-7.736 4.953 30.77 30.77 0 0 0-6.233 6.79 35.196 35.196 0 0 0-4.063 8.459 2.9 2.9 0 0 1-3.59 1.976 2.9 2.9 0 0 1-1.976-3.59 41.547 41.547 0 0 1 3.562-10.574 38.33 38.33 0 0 1 6.456-9.35 46.939 46.939 0 0 1 8.682-7.402 46.26 46.26 0 0 1 10.518-5.287 5.588 5.588 0 1 1 3.618 10.574h-.779l-.111.557z" style="" fill="#0b5587" data-original="#db71b0" className="" opacity="1"></path></g></svg>