<svg xmlns="http://www.w3.org/2000/svg" version="1.1" xmlns:xlink="http://www.w3.org/1999/xlink" width="512" height="512" x="0" y="0" viewBox="0 0 512 512" style="enable-background:new 0 0 512 512" xml:space="preserve" className=""><g><path d="M492.523 271.638c29.162 167.736-10.797 233.405-236.522 234.797C30.276 505.043-9.682 439.318 19.479 271.638 48.307 109.523 74.464 5.565 256.001 5.565s207.694 103.958 236.522 266.073z" style="" fill="#75ddef" data-original="#9be6ea" className="" opacity="1"></path><path d="m308.092 8.96-.779.501a62.194 62.194 0 0 1-30.553 4.897 237.476 237.476 0 0 0-66.783 6.567 94.617 94.617 0 0 0-54.15 37.009c-7.958 12.188-12.41 26.936-23.263 36.563-12.132 10.685-29.551 12.633-43.52 20.647a56.81 56.81 0 0 0-27.826 46.303c-1.057 28.55 19.645 56.153 12.577 83.812C70.68 257.391 62.666 267.52 57.1 278.65c-5.009 10.407-8.014 22.261-15.527 30.776a74.056 74.056 0 0 1-16.696 13.19c-4.063 2.56-8.237 4.842-12.188 7.235a570.152 570.152 0 0 1 7.457-58.435C48.307 109.523 74.464 5.565 256.001 5.565c7.513 0 14.803 0 21.816.557 10.685.556 20.758 1.502 30.275 2.838z" style="" fill="#75bbda" data-original="#bef4ed" className="" opacity="1"></path><path d="M256.001 506.435a730.102 730.102 0 0 1-98.226-6.289 55.302 55.302 0 0 1 21.259-15.416c17.085-6.678 36.118-5.565 54.317-3.506s36.508 5.565 54.762 4.007c36.619-3.617 68.508-27.826 104.96-32.89a185.258 185.258 0 0 0 27.214-3.784 49.145 49.145 0 0 0 32.779-32.946c2.504-8.849 2.727-18.922 8.793-25.823 3.951-4.452 9.85-6.901 13.802-11.13 7.791-8.793 5.899-22.261 3.896-33.837a627.54 627.54 0 0 1-9.127-105.739c0-13.523.946-28.271 8.125-38.957 4.953 22.261 9.461 46.47 13.969 71.903 29.161 167.29-10.798 233.015-236.523 234.407z" style="" fill="#84c7d3" data-original="#84c7d3" className="" opacity="1"></path><path d="M256.035 512c-118.634-.729-186.897-19.462-221.39-60.728-30.202-36.135-36.38-90.14-20.653-180.586C43.844 102.851 71.498 0 256.001 0s212.163 102.851 242.004 270.664c0 .006.006.011.006.022 15.722 90.463 9.55 144.473-20.653 180.602C442.87 492.544 374.613 511.271 256.035 512zm-.034-500.87c-175.627 0-202.212 99.361-231.046 261.476-15.098 86.867-9.65 138.168 18.232 171.526 32.206 38.534 97.853 56.031 212.847 56.737 114.938-.707 180.58-18.204 212.781-56.721 27.876-33.347 33.33-84.647 18.226-171.537C458.213 110.492 431.628 11.13 256.001 11.13z" style="" fill="#302a27" data-original="#302a27" className=""></path><circle cx="166.958" cy="222.609" r="38.957" style="" fill="#84c7d3" data-original="#84c7d3" className="" opacity="1"></circle><path d="M166.958 267.13c-24.548 0-44.522-19.974-44.522-44.522s19.974-44.522 44.522-44.522 44.522 19.974 44.522 44.522-19.974 44.522-44.522 44.522zm0-77.913c-18.415 0-33.391 14.976-33.391 33.391S148.542 256 166.958 256s33.391-14.976 33.391-33.391-14.976-33.392-33.391-33.392z" style="" fill="#84c7d3" data-original="#84c7d3" className="" opacity="1"></path><circle cx="333.914" cy="222.609" r="72.348" style="" fill="#84c7d3" data-original="#84c7d3" className="" opacity="1"></circle><path d="M333.92 300.522c-42.963 0-77.913-34.95-77.913-77.913s34.95-77.913 77.913-77.913 77.913 34.95 77.913 77.913-34.955 77.913-77.913 77.913zm0-144.696c-36.825 0-66.783 29.958-66.783 66.783s29.958 66.783 66.783 66.783 66.783-29.958 66.783-66.783-29.958-66.783-66.783-66.783z" style="" fill="#84c7d3" data-original="#84c7d3" className="" opacity="1"></path><circle cx="166.958" cy="200.348" r="38.957" style="" fill="#ffffff" data-original="#ffffff" className=""></circle><path d="M166.958 244.87c-24.548 0-44.522-19.974-44.522-44.522s19.974-44.522 44.522-44.522 44.522 19.974 44.522 44.522-19.974 44.522-44.522 44.522zm0-77.913c-18.415 0-33.391 14.976-33.391 33.391s14.976 33.391 33.391 33.391 33.391-14.976 33.391-33.391-14.976-33.391-33.391-33.391z" style="" fill="#302a27" data-original="#302a27" className=""></path><circle cx="166.958" cy="200.348" r="16.696" style="" fill="#076352" data-original="#a694d7" className="" opacity="1"></circle><circle cx="166.958" cy="200.348" r="11.13" style="" fill="#302a27" data-original="#302a27" className=""></circle><circle cx="155.827" cy="194.783" r="5.565" style="" fill="#ffffff" data-original="#ffffff" className=""></circle><circle cx="333.914" cy="200.348" r="72.348" style="" fill="#ffffff" data-original="#ffffff" className=""></circle><path d="M333.92 278.261c-42.963 0-77.913-34.95-77.913-77.913s34.95-77.913 77.913-77.913 77.913 34.95 77.913 77.913-34.955 77.913-77.913 77.913zm0-144.696c-36.825 0-66.783 29.958-66.783 66.783s29.958 66.783 66.783 66.783 66.783-29.958 66.783-66.783-29.958-66.783-66.783-66.783z" style="" fill="#302a27" data-original="#302a27" className=""></path><circle cx="333.914" cy="200.348" r="27.826" style="" fill="#076352" data-original="#a694d7" className="" opacity="1"></circle><circle cx="333.914" cy="200.348" r="19.478" style="" fill="#302a27" data-original="#302a27" className=""></circle><circle cx="317.219" cy="194.783" r="11.13" style="" fill="#ffffff" data-original="#ffffff" className=""></circle><path d="M135.459 133.565a50.04 50.04 0 0 1 14.414-5.176 61.864 61.864 0 0 1 15.36-1.224 49.54 49.54 0 0 1 15.416 3.339 34.874 34.874 0 0 1 13.023 9.183 2.839 2.839 0 0 1-3.061 4.564 97.265 97.265 0 0 0-12.689-4.007 97.834 97.834 0 0 0-13.023-1.781 230.572 230.572 0 0 0-27.381.612 2.891 2.891 0 0 1-3.562-2.003 2.891 2.891 0 0 1 2.003-3.562l-.5.055zM273.532 112.139a87.383 87.383 0 0 1 26.157-19.757 89.108 89.108 0 0 1 31.777-9.238 84.723 84.723 0 0 1 33.002 3.117 90.894 90.894 0 0 1 15.36 5.899 161.217 161.217 0 0 1 13.913 8.403 2.781 2.781 0 0 1-2.393 4.953h-.39c-4.953-1.67-9.461-4.063-14.303-5.565A116.056 116.056 0 0 0 362.13 96a92.343 92.343 0 0 0-29.496-1.67 98.966 98.966 0 0 0-28.772 7.123 126.577 126.577 0 0 0-26.323 14.692 2.778 2.778 0 0 1-3.912-.429 2.781 2.781 0 0 1 .184-3.69l-.279.113z" style="" fill="#84c7d3" data-original="#84c7d3" className="" opacity="1"></path><path d="M202.965 354.894 161.393 384l8.18-49.197" style="" fill="#ffffff" data-original="#ffffff" className=""></path><path d="M161.393 389.565a5.544 5.544 0 0 1-2.966-.857 5.55 5.55 0 0 1-2.521-5.621l8.181-49.197c.501-3.027 3.328-5.126 6.4-4.575a5.56 5.56 0 0 1 4.575 6.4l-6.01 36.124 30.72-21.51c2.532-1.753 5.994-1.146 7.752 1.369a5.57 5.57 0 0 1-1.369 7.752l-41.572 29.106a5.548 5.548 0 0 1-3.19 1.009z" style="" fill="#302a27" data-original="#302a27" className=""></path><path d="m293.678 372.313 17.975 39.513 22.762-45.523" style="" fill="#ffffff" data-original="#ffffff" className=""></path><path d="M311.659 417.391h-.106a5.569 5.569 0 0 1-4.964-3.261l-17.976-39.513a5.559 5.559 0 0 1 2.76-7.368 5.564 5.564 0 0 1 7.368 2.76l13.151 28.895 17.542-35.094a5.574 5.574 0 0 1 7.469-2.488 5.568 5.568 0 0 1 2.488 7.469l-22.762 45.523a5.562 5.562 0 0 1-4.97 3.077z" style="" fill="#302a27" data-original="#302a27" className=""></path><path d="M283.883 378.101c-83.089 0-131.539-50.894-132.135-51.534a5.565 5.565 0 0 1 .289-7.858 5.572 5.572 0 0 1 7.864.278c.696.757 71.58 74.813 189.028 37.448 2.916-.946 6.055.685 6.99 3.617a5.573 5.573 0 0 1-3.617 6.99c-24.827 7.898-47.7 11.059-68.419 11.059z" style="" fill="#302a27" data-original="#302a27" className=""></path><path d="M199.848 387.339c5.565 2.56 11.91 5.009 17.92 7.068a159.223 159.223 0 0 0 18.421 5.176 152.112 152.112 0 0 0 18.866 3.061c6.344.779 12.8.835 19.423 1.28a2.801 2.801 0 0 1 3.089 2.477 2.801 2.801 0 0 1-2.477 3.089 73.777 73.777 0 0 1-20.591 3.172 86.03 86.03 0 0 1-20.758-2.282 89.009 89.009 0 0 1-19.757-6.901 67.731 67.731 0 0 1-17.419-11.687 2.783 2.783 0 0 1 3.061-4.619l.222.166z" style="" fill="#84c7d3" data-original="#84c7d3" className="" opacity="1"></path></g></svg>