<svg xmlns="http://www.w3.org/2000/svg" version="1.1" xmlns:xlink="http://www.w3.org/1999/xlink" width="512" height="512" x="0" y="0" viewBox="0 0 512 512" style="enable-background:new 0 0 512 512" xml:space="preserve" className=""><g><path d="M492.523 271.638c29.162 167.736-10.797 233.405-236.522 234.797C30.276 505.043-9.682 439.318 19.479 271.638 48.307 109.523 74.464 5.565 256.001 5.565s207.694 103.958 236.522 266.073z" style="" fill="#84b2bc" data-original="#84b2bc" className=""></path><circle cx="333.914" cy="222.609" r="66.783" style="" fill="#6d98a5" data-original="#6d98a5" className="" opacity="1"></circle><path d="M333.92 294.957c-39.891 0-72.348-32.456-72.348-72.348s32.456-72.348 72.348-72.348 72.348 32.456 72.348 72.348-32.462 72.348-72.348 72.348zm0-133.566c-33.753 0-61.217 27.464-61.217 61.217s27.464 61.217 61.217 61.217 61.217-27.464 61.217-61.217-27.464-61.217-61.217-61.217z" style="" fill="#6d98a5" data-original="#6d98a5" className="" opacity="1"></path><circle cx="178.088" cy="222.609" r="66.783" style="" fill="#6d98a5" data-original="#6d98a5" className="" opacity="1"></circle><path d="M178.088 294.957c-39.891 0-72.348-32.456-72.348-72.348s32.456-72.348 72.348-72.348 72.348 32.456 72.348 72.348-32.456 72.348-72.348 72.348zm0-133.566c-33.753 0-61.217 27.464-61.217 61.217s27.464 61.217 61.217 61.217 61.217-27.464 61.217-61.217-27.464-61.217-61.217-61.217z" style="" fill="#6d98a5" data-original="#6d98a5" className="" opacity="1"></path><path d="m308.092 8.96-.779.501a62.194 62.194 0 0 1-30.553 4.897 237.476 237.476 0 0 0-66.783 6.567 94.617 94.617 0 0 0-54.15 37.009c-7.958 12.188-12.41 26.936-23.263 36.563-12.132 10.685-29.551 12.633-43.52 20.647a56.81 56.81 0 0 0-27.826 46.303c-1.057 28.55 19.645 56.153 12.577 83.812C70.68 257.391 62.666 267.52 57.1 278.65c-5.009 10.407-8.014 22.261-15.527 30.776a74.056 74.056 0 0 1-16.696 13.19c-4.063 2.56-8.237 4.842-12.188 7.235a570.152 570.152 0 0 1 7.457-58.435C48.307 109.523 74.464 5.565 256.001 5.565c7.513 0 14.803 0 21.816.557 10.685.556 20.758 1.502 30.275 2.838z" style="" fill="#9acbcc" data-original="#9acbcc"></path><path d="M256.001 506.435a730.102 730.102 0 0 1-98.226-6.289 55.302 55.302 0 0 1 21.259-15.416c17.085-6.678 36.118-5.565 54.317-3.506s36.508 5.565 54.762 4.007c36.619-3.617 68.508-27.826 104.96-32.89a185.258 185.258 0 0 0 27.214-3.784 49.145 49.145 0 0 0 32.779-32.946c2.504-8.849 2.727-18.922 8.793-25.823 3.951-4.452 9.85-6.901 13.802-11.13 7.791-8.793 5.899-22.261 3.896-33.837a627.54 627.54 0 0 1-9.127-105.739c0-13.523.946-28.271 8.125-38.957 4.953 22.261 9.461 46.47 13.969 71.903 29.161 167.29-10.798 233.015-236.523 234.407z" style="" fill="#6d98a5" data-original="#6d98a5" className="" opacity="1"></path><path d="M256.035 512c-118.634-.729-186.897-19.462-221.39-60.728-30.202-36.135-36.38-90.14-20.653-180.586C43.844 102.851 71.498 0 256.001 0s212.163 102.851 242.004 270.664c0 .006.006.011.006.022 15.722 90.463 9.55 144.473-20.653 180.602C442.87 492.544 374.613 511.271 256.035 512zm-.034-500.87c-175.627 0-202.212 99.361-231.046 261.476-15.098 86.867-9.65 138.168 18.232 171.526 32.206 38.534 97.853 56.031 212.847 56.737 114.938-.707 180.58-18.204 212.781-56.721 27.876-33.347 33.33-84.647 18.226-171.537C458.213 110.492 431.628 11.13 256.001 11.13z" style="" fill="#302a27" data-original="#302a27" className=""></path><circle cx="333.914" cy="200.348" r="66.783" style="" fill="#ffffff" data-original="#ffffff" className=""></circle><path d="M333.92 272.696c-39.891 0-72.348-32.456-72.348-72.348S294.028 128 333.92 128s72.348 32.456 72.348 72.348-32.462 72.348-72.348 72.348zm0-133.566c-33.753 0-61.217 27.464-61.217 61.217s27.464 61.217 61.217 61.217 61.217-27.464 61.217-61.217-27.464-61.217-61.217-61.217z" style="" fill="#302a27" data-original="#302a27" className=""></path><circle cx="311.653" cy="211.478" r="27.826" style="" fill="#076352" data-original="#a694d7" className="" opacity="1"></circle><circle cx="311.653" cy="211.478" r="16.696" style="" fill="#302a27" data-original="#302a27" className=""></circle><circle cx="294.958" cy="194.783" r="11.13" style="" fill="#ffffff" data-original="#ffffff" className=""></circle><circle cx="178.088" cy="200.348" r="66.783" style="" fill="#ffffff" data-original="#ffffff" className=""></circle><path d="M178.088 272.696c-39.891 0-72.348-32.456-72.348-72.348S138.197 128 178.088 128s72.348 32.456 72.348 72.348-32.456 72.348-72.348 72.348zm0-133.566c-33.753 0-61.217 27.464-61.217 61.217s27.464 61.217 61.217 61.217 61.217-27.464 61.217-61.217-27.464-61.217-61.217-61.217z" style="" fill="#302a27" data-original="#302a27" className=""></path><circle cx="200.349" cy="211.478" r="27.826" style="" fill="#076352" data-original="#a694d7" className="" opacity="1"></circle><circle cx="200.349" cy="211.478" r="16.696" style="" fill="#302a27" data-original="#302a27" className=""></circle><circle cx="183.653" cy="194.783" r="11.13" style="" fill="#ffffff" data-original="#ffffff" className=""></circle><path d="M256.001 406.283c-9.6 0-19.189-.774-28.717-2.321a5.562 5.562 0 0 1-4.664-5.777c1.041-20.441 15.705-36.447 33.38-36.447 17.542 0 32.206 15.994 33.386 36.408a5.562 5.562 0 0 1-4.664 5.816 179.015 179.015 0 0 1-28.721 2.321zm-21.637-12.533a168.422 168.422 0 0 0 43.247.006c-2.527-12.049-11.347-20.886-21.61-20.886-10.357 0-19.183 8.837-21.637 20.88zM311.659 396.8a5.574 5.574 0 0 1-4.936-2.989c-9.578-18.354-5.12-39.174 10.368-48.423 15.065-9.005 34.605-3.261 46.431 13.663a5.569 5.569 0 0 1-.679 7.179c-13.941 13.546-31.015 24.008-49.391 30.269a5.604 5.604 0 0 1-1.793.301zm20.703-44.472c-3.345 0-6.606.846-9.567 2.616-9.177 5.482-12.316 17.519-8.147 29.279a121.709 121.709 0 0 0 36.753-22.545c-5.527-6.049-12.439-9.35-19.039-9.35zM200.349 396.8c-.601 0-1.208-.1-1.798-.301-18.365-6.278-35.423-16.746-49.33-30.269a5.563 5.563 0 0 1-.685-7.174c11.464-16.417 31.371-22.311 46.297-13.713 15.098 8.698 19.79 30.431 10.457 48.451a5.557 5.557 0 0 1-4.941 3.006zm-39.669-35.105a121.784 121.784 0 0 0 36.641 22.506c3.996-11.676.824-24.109-8.042-29.217-8.753-5.032-20.396-2.099-28.599 6.711z" style="" fill="#302a27" data-original="#302a27" className=""></path><path d="M228.175 398.47c.89-17.419 12.967-31.165 27.826-31.165s26.824 13.746 27.826 31.165" style="" fill="#ffffff" data-original="#ffffff" className=""></path><path d="M283.827 404.035a5.562 5.562 0 0 1-5.549-5.242c-.846-14.536-10.63-25.923-22.278-25.923-11.743 0-21.526 11.37-22.266 25.878-.156 3.072-2.81 5.493-5.843 5.276a5.564 5.564 0 0 1-5.27-5.843c1.041-20.435 15.705-36.441 33.38-36.441 17.542 0 32.206 15.994 33.386 36.408a5.562 5.562 0 0 1-5.231 5.877c-.112.004-.223.01-.329.01z" style="" fill="#302a27" data-original="#302a27" className=""></path><path d="M311.653 391.235c-8.125-15.583-4.563-33.391 8.292-41.071 12.856-7.68 29.273-1.781 38.957 12.077" style="" fill="#ffffff" data-original="#ffffff" className=""></path><path d="M311.659 396.8a5.573 5.573 0 0 1-4.942-2.989c-9.578-18.354-5.12-39.174 10.368-48.423 15.043-8.993 34.554-3.25 46.375 13.668a5.576 5.576 0 0 1-1.38 7.752c-2.51 1.753-5.983 1.141-7.752-1.38-8.376-11.987-21.626-16.395-31.538-10.485-10.34 6.177-13.012 20.68-6.205 33.72a5.576 5.576 0 0 1-2.36 7.513 5.566 5.566 0 0 1-2.566.624z" style="" fill="#302a27" data-original="#302a27" className=""></path><path d="M153.045 362.24c9.683-13.857 26.49-19.256 38.957-12.077 12.466 7.179 16.696 25.489 8.292 41.071" style="" fill="#ffffff" data-original="#ffffff" className=""></path><path d="M200.288 396.8a5.566 5.566 0 0 1-4.897-8.203c6.706-12.427 3.879-27.821-6.172-33.608-9.878-5.688-23.474-1.208-31.616 10.446a5.563 5.563 0 0 1-7.752 1.369 5.568 5.568 0 0 1-1.375-7.752c11.47-16.406 31.377-22.305 46.297-13.707 15.393 8.865 20.063 30.637 10.418 48.534a5.576 5.576 0 0 1-4.903 2.921z" style="" fill="#302a27" data-original="#302a27" className=""></path><path d="M174.86 100.174a50.987 50.987 0 0 1 15.805-2.504c5.37-.05 10.724.623 15.917 2.003a48.607 48.607 0 0 1 14.915 6.511 38.556 38.556 0 0 1 11.464 11.464 2.84 2.84 0 0 1-.857 3.923 2.843 2.843 0 0 1-2.816.139c-4.397-2.282-8.237-4.786-12.522-6.511a91.276 91.276 0 0 0-12.856-4.786 118.759 118.759 0 0 0-13.635-3.005c-4.619-.723-9.517-1.224-14.191-1.67a2.838 2.838 0 0 1-.668-5.566l-.556.002zM336.252 105.739c-4.675.445-9.572.89-14.191 1.67a118.97 118.97 0 0 0-13.635 3.005 91.322 91.322 0 0 0-12.856 4.786c-4.285 1.725-8.125 4.23-12.522 6.511a2.837 2.837 0 0 1-3.812-1.247 2.844 2.844 0 0 1 .139-2.816 38.556 38.556 0 0 1 11.464-11.464 48.607 48.607 0 0 1 14.915-6.511 59.756 59.756 0 0 1 15.917-2.003c5.365 0 10.702.84 15.805 2.504a2.832 2.832 0 0 1 1.948 3.506 2.842 2.842 0 0 1-2.616 2.059h-.556zM209.532 422.957c5.565.946 11.52 1.892 17.363 2.393 5.843.501 11.687 1.057 17.53 1.224a243.681 243.681 0 0 0 34.894-1.391 200.402 200.402 0 0 0 34.17-6.623c2.783-.835 5.565-1.503 8.403-2.393l8.181-3.005c5.565-1.725 10.741-4.619 16.306-6.623h.278a2.783 2.783 0 0 1 2.504 4.897 136.737 136.737 0 0 1-32.724 16.696 156.202 156.202 0 0 1-17.753 5.231c-6.066 1.057-12.132 2.449-18.254 2.894a168.687 168.687 0 0 1-36.786 0 147.705 147.705 0 0 1-35.784-7.736 2.875 2.875 0 0 1 1.447-5.565h.225z" style="" fill="#6d98a5" data-original="#6d98a5" className="" opacity="1"></path><path d="M256.001 406.283c-9.6 0-19.189-.774-28.717-2.321a159.452 159.452 0 0 1-28.833-7.496c-18.265-6.244-35.322-16.712-49.23-30.241a96.54 96.54 0 0 1-14.809-18.226 5.57 5.57 0 0 1 1.764-7.674 5.563 5.563 0 0 1 7.669 1.759 84.932 84.932 0 0 0 13.112 16.139c12.755 12.405 28.371 21.994 45.19 27.737a148.978 148.978 0 0 0 26.919 7.007c17.864 2.9 35.985 2.9 53.871 0a148.56 148.56 0 0 0 26.819-6.973c17.018-5.743 32.729-15.332 45.546-27.754a85.152 85.152 0 0 0 12.833-16.117c1.603-2.627 5.031-3.439 7.652-1.825a5.555 5.555 0 0 1 1.825 7.652 96.128 96.128 0 0 1-14.531 18.248c-14.03 13.596-31.187 24.064-49.642 30.297a158.93 158.93 0 0 1-28.717 7.457 177.886 177.886 0 0 1-28.721 2.331z" style="" fill="#302a27" data-original="#302a27" className=""></path></g></svg>